<?xml version="1.0" encoding="utf-8"?>
<!-- Generator: Adobe Illustrator 16.0.0, SVG Export Plug-In . SVG Version: 6.00 Build 0)  -->
<!DOCTYPE svg PUBLIC "-//W3C//DTD SVG 1.1//EN" "http://www.w3.org/Graphics/SVG/1.1/DTD/svg11.dtd">
<svg version="1.1" id="Layer_1" xmlns="http://www.w3.org/2000/svg" xmlns:xlink="http://www.w3.org/1999/xlink" x="0px" y="0px"
	 width="105px" height="58px" viewBox="0 0 105 58" style="enable-background:new 0 0 105 58;" xml:space="preserve">
<g>
	<g>
		<path style="fill:#8BC53F;" d="M40.91,45.222c0.002-7.716-6.447-7.599-9.137-7.716c-3.718,0-6.02-1.489-8.041-3.502
			c0,0-0.028,7.431,8.021,7.431C31.752,41.435,39.536,41.435,40.91,45.222z"/>
	</g>
</g>
<path style="fill:#8BC53F;" d="M16.147,24.125h0.563v-0.289c0-2.04-1.667-2.88-4.067-2.88c-2.986,0-5.501,1.188-5.501,1.188
	l-1.294-2.48c0,0,3.244-2.008,6.812-2.183c4.4-0.214,8.217,1.195,8.217,6.712v10.553h-3.871v-1.39c0-0.661,0.066-1.192,0.066-1.192
	h-0.066c0.033,0-2.375,2.976-6.211,2.976c-3.197,0-6.355-1.497-6.355-5.652C4.438,24.521,10.014,24.125,16.147,24.125z
	 M11.851,31.866c2.216,0,4.891-2.379,4.891-4.433v-0.848h-0.73c-4.043,0-7.338,0.695-7.338,2.704
	C8.673,31.008,9.961,31.866,11.851,31.866z"/>
<path style="fill:#8BC53F;" d="M42.914,17.877h4.036v3.1c0,0.627-0.065,1.189-0.065,1.189h0.065c0.758-2.411,2.778-4.33,5.358-4.33
	c0.398,0,0.76,0.063,0.76,0.063v4.036c0,0-0.429-0.065-0.994-0.065c-1.784,0-3.799,1.027-4.594,3.542
	c-0.263,0.823-0.361,1.746-0.361,2.74v6.594h-4.204V17.877z"/>
<path style="fill:#8BC53F;" d="M54.812,11.266h4.168v3.733h-4.168V11.266z M54.812,17.877h4.199v16.869h-4.199V17.877z"/>
<path style="fill:#8BC53F;" d="M80.727,17.877h4.035v1.952c0,0.629-0.063,1.156-0.063,1.156h0.063
	c0.727-1.42,2.577-3.504,5.989-3.504c3.732,0,5.849,1.952,5.849,6.418v10.847h-4.164v-9.99c0-2.053-0.531-3.438-2.678-3.438
	c-2.253,0-3.903,1.421-4.531,3.438c-0.23,0.696-0.301,1.456-0.301,2.251v7.739h-4.199V17.877z"/>
<path style="fill:#8BC53F;" d="M40.57,17.865l-8.899-0.112c-4.915,0-8.9,3.985-8.9,8.899c0,4.915,3.985,8.898,8.9,8.898
	c4.914,0,8.899-3.983,8.899-8.898c0-1.39-0.325-2.703-0.889-3.877c-0.529-1.105-1.596-2.028-2.224-2.315l3.113,0.62V17.865z
	 M31.673,31.885c-2.566,0-4.645-2.345-4.645-5.235c0-2.891,2.079-5.235,4.645-5.235c2.567,0,4.646,2.345,4.646,5.235
	C36.319,29.54,34.24,31.885,31.673,31.885z"/>
<path style="fill:#8BC53F;" d="M69.878,17.753c-4.915,0-8.898,3.985-8.898,8.899c0,4.915,3.983,8.898,8.898,8.898
	s8.899-3.983,8.899-8.898C78.777,21.738,74.793,17.753,69.878,17.753z M69.881,31.885c-2.565,0-4.646-2.345-4.646-5.235
	c0-2.891,2.08-5.235,4.646-5.235s4.646,2.345,4.646,5.235C74.526,29.54,72.446,31.885,69.881,31.885z"/>
<g>
	<g>
		<path style="fill:#368D37;" d="M58.046,37.552c-1.559,0-2.688,0.791-2.688,0.791l0.535,1.02c0,0,0.983-0.459,2.143-0.459
			c0.936,0,1.583,0.324,1.583,1.121v0.112h-0.214c-2.392,0-4.56,0.154-4.56,2.082c0,1.622,1.229,2.201,2.474,2.201
			c1.491,0,2.43-1.156,2.417-1.156h0.026c0,0-0.026,0.206-0.026,0.464v0.538h1.506v-4.103
			C61.242,38.016,59.973,37.552,58.046,37.552z M59.633,41.428c0,0.791-1.04,1.72-1.906,1.72c-0.731,0-1.234-0.334-1.234-1.003
			c0-0.782,1.281-1.054,2.857-1.054h0.283V41.428z"/>
		<path style="fill:#368D37;" d="M67.356,39.386c0-1.098-0.965-1.917-2.682-1.917c-1.802,0-2.692,1.12-2.692,1.12l0.71,0.993
			c0,0,0.864-0.788,2.043-0.788c0.508,0,1.003,0.271,1.003,0.66c0,0.979-3.79,0.91-3.79,3.021c0,1.225,1.335,1.911,2.893,1.911
			c1.626,0,2.493-0.807,2.493-0.807l-0.663-1.213c0,0-0.722,0.592-1.828,0.592c-0.464,0-1.016-0.182-1.016-0.593
			C63.827,41.324,67.356,41.386,67.356,39.386z"/>
		<path style="fill:#368D37;" d="M71.786,37.465c-1.544,0-2.112,1.084-2.112,1.084h-0.025c0,0,0.025-0.206,0.025-0.451V37.62h-1.497
			v9.157h1.64v-2.761c0-0.336-0.026-0.568-0.026-0.568h0.026c0,0,0.577,0.903,1.884,0.903c1.727,0,3.003-1.354,3.003-3.44
			C74.703,38.872,73.566,37.465,71.786,37.465z M71.398,42.972c-1.078,0-1.635-1.008-1.635-2.027c0-1.453,0.802-2.072,1.652-2.072
			c0.964,0,1.635,0.811,1.635,2.065C73.051,42.235,72.303,42.972,71.398,42.972z"/>
		<path style="fill:#368D37;" d="M79.942,40.635c0,1.179-0.657,2.221-1.841,2.221c-0.817,0-1.023-0.542-1.023-1.344V37.62h-1.636
			v4.229c0,1.794,0.878,2.503,2.28,2.503c1.123,0,1.963-0.684,2.284-1.367h0.026c0,0-0.026,0.206-0.026,0.464v0.748h1.575V37.62
			h-1.64V40.635z"/>
		<path style="fill:#368D37;" d="M85.923,37.465c-2,0-3.614,1.433-3.614,3.446c0,2.021,1.614,3.44,3.627,3.44
			c2,0,3.609-1.42,3.609-3.44C89.545,38.897,87.936,37.465,85.923,37.465z M85.936,42.959c-1.072,0-1.962-0.827-1.962-2.048
			c0-1.214,0.89-2.057,1.962-2.057c1.053,0,1.948,0.843,1.948,2.057C87.884,42.132,86.988,42.959,85.936,42.959z"/>
		<polygon style="fill:#368D37;" points="94.962,37.62 94.962,40.223 91.924,40.223 91.924,37.62 90.284,37.62 90.284,44.196 
			91.924,44.196 91.924,41.564 94.962,41.564 94.962,44.196 96.6,44.196 96.6,37.62 		"/>
	</g>
</g>
</svg>
